<?xml version="1.0" standalone="no"?>
<!DOCTYPE svg PUBLIC "-//W3C//DTD SVG 1.1//EN" "http://www.w3.org/Graphics/SVG/1.1/DTD/svg11.dtd" >
<svg xmlns="http://www.w3.org/2000/svg" xmlns:xlink="http://www.w3.org/1999/xlink" version="1.1">
<metadata>
Created by FontForge 20170731 at Sun Sep  8 19:07:20 2019
 By Aleksey,,,
</metadata>
<defs>
<font id="MinecraftTen" horiz-adv-x="590" >
  <font-face 
    font-family="Minecraft Ten"
    font-weight="400"
    font-stretch="normal"
    units-per-em="1000"
    panose-1="0 0 0 0 0 0 0 0 0 0"
    ascent="750"
    descent="-250"
    x-height="700"
    cap-height="700"
    bbox="50 -140 960 770"
    underline-thickness="50"
    underline-position="-250"
    unicode-range="U+001D-2122"
  />
<missing-glyph horiz-adv-x="300" 
 />
    <glyph glyph-name=".notdef" horiz-adv-x="300" 
 />
    <glyph glyph-name="uni0000" horiz-adv-x="0" 
 />
    <glyph glyph-name="uni0000" horiz-adv-x="0" 
 />
    <glyph glyph-name="nonmarkingreturn" horiz-adv-x="333" 
 />
    <glyph glyph-name="space" unicode=" " horiz-adv-x="200" 
 />
    <glyph glyph-name="exclam" unicode="!" horiz-adv-x="240" 
d="M50 280v420h210v-420h-210zM50 0v210h210v-210h-210z" />
    <glyph glyph-name="quotedbl" unicode="&#x22;" horiz-adv-x="520" 
d="M50 350v350h210v-350h-210zM330 350v350h210v-350h-210z" />
    <glyph glyph-name="numbersign" unicode="#" horiz-adv-x="730" 
d="M680 420h-70v-140h70v-140h-70v-140h-210v140h-70v-140h-210v140h-70v140h70v140h-70v140h70v140h210v-140h70v140h210v-140h70v-140zM400 280v140h-70v-140h70z" />
    <glyph glyph-name="percent" unicode="%" horiz-adv-x="800" 
d="M50 0v210h210v-210h-210zM190 140v210h210v-210h-210zM330 350v210h210v-210h-210zM470 490v210h210v-210h-210zM50 490v210h210v-210h-210zM470 0v210h210v-210h-210z" />
    <glyph glyph-name="ampersand" unicode="&#x26;" horiz-adv-x="730" 
d="M50 0v419l70 1v280h350v-280h140v-140h-70v-140h140v-140h-630zM330 420v140h-70v-140h70zM260 280v-140h70v140h-70z" />
    <glyph glyph-name="quotesingle" unicode="'" horiz-adv-x="310" 
d="M50 350v350h210v-350h-210z" />
    <glyph glyph-name="parenleft" unicode="(" 
d="M50 140v420h140v140h350v-140h-139v-140h-141v-140h140v-140h140v-140h-350v140h-140z" />
    <glyph glyph-name="parenright" unicode=")" 
d="M540 560v-420h-140v-140h-350v140h140v140h140v140h-141v140h-139v140h350v-140h140z" />
    <glyph glyph-name="asterisk" unicode="*" horiz-adv-x="520" 
d="M50 560v140h140v-70h140v70h140v-140h-70v-140h70v-140h-140v70h-140v-70h-140v140h70v140h-70z" />
    <glyph glyph-name="plus" unicode="+" horiz-adv-x="520" 
d="M190 420v140h140v-140h140v-140h-140v-140h-140v140h-140v140h140z" />
    <glyph glyph-name="comma" unicode="," horiz-adv-x="310" 
d="M120 0h-70v210h210v-350h-140v140z" />
    <glyph glyph-name="hyphen" unicode="-" horiz-adv-x="450" 
d="M50 280v140h350v-140h-350z" />
    <glyph glyph-name="period" unicode="." horiz-adv-x="310" 
d="M50 0v210h210v-210h-210z" />
    <glyph glyph-name="slash" unicode="/" horiz-adv-x="730" 
d="M50 0v210h210v-210h-210zM190 140v210h210v-210h-210zM330 350v210h210v-210h-210zM470 490v210h210v-210h-210z" />
    <glyph glyph-name="zero" unicode="0" 
d="M50 0v700h490v-700h-490zM330 140v420h-70v-420h70z" />
    <glyph glyph-name="one" unicode="1" horiz-adv-x="450" 
d="M50 490v140h140v70h210v-700h-210v490h-140z" />
    <glyph glyph-name="two" unicode="2" 
d="M50 0v420h280v140h-280v140h490v-420h-280v-140h280v-140h-490z" />
    <glyph glyph-name="three" unicode="3" 
d="M330 140v140h-210v140h210v140h-280v140h490v-700h-490v140h280z" />
    <glyph glyph-name="four" unicode="4" horiz-adv-x="730" 
d="M50 140v140h70v140h70v140h70v70h140v70h210v-420h70v-140h-70v-140h-210v140h-350zM260 350v-70h140v209h-70v-139h-70z" />
    <glyph glyph-name="five" unicode="5" 
d="M50 280v420h490v-140h-280v-140h280v-420h-490v140h280v140h-280z" />
    <glyph glyph-name="six" unicode="6" 
d="M50 0v700h490v-140h-280v-140h280v-420h-490zM330 280h-70v-140h70v140z" />
    <glyph glyph-name="seven" unicode="7" 
d="M120 140h70v140h70v140h70v140h-280v140h490v-280h-70v-140h-70v-140h-70v-140h-210v140z" />
    <glyph glyph-name="eight" unicode="8" 
d="M120 350v70h-70v280h490v-280h-70v-70h70v-350h-490v350h70zM330 420v140h-70v-140h70zM260 280v-140h70v140h-70z" />
    <glyph glyph-name="nine" unicode="9" 
d="M540 700v-700h-490v140h280v140h-280v420h490zM260 420h70v140h-70v-140z" />
    <glyph glyph-name="colon" unicode=":" horiz-adv-x="310" 
d="M50 350v210h210v-210h-210zM50 0v210h210v-210h-210z" />
    <glyph glyph-name="semicolon" unicode=";" horiz-adv-x="310" 
d="M50 350v210h210v-210h-210zM120 0h-70v210h210v-350h-140v140z" />
    <glyph glyph-name="equal" unicode="=" horiz-adv-x="520" 
d="M50 140v140h420v-140h-420zM50 420v140h420v-140h-420z" />
    <glyph glyph-name="question" unicode="?" horiz-adv-x="660" 
d="M50 420v210h70v70h420v-70h70v-280h-140v-70h-210v140h70v140h-140v-140h-140zM260 0v210h210v-210h-210z" />
    <glyph glyph-name="A" unicode="A" 
d="M50 0v700h490v-700h-210v280h-70v-280h-210zM330 420v140h-70v-140h70z" />
    <glyph glyph-name="B" unicode="B" 
d="M50 0v700h490v-280h-70v-70h70v-350h-490zM330 420v140h-70v-140h70zM260 280v-140h70v140h-70z" />
    <glyph glyph-name="C" unicode="C" horiz-adv-x="520" 
d="M470 140v-140h-420v700h420v-140h-210v-420h210z" />
    <glyph glyph-name="D" unicode="D" 
d="M50 0v700h420v-70h70v-560h-70v-70h-420zM330 140v420h-70v-420h70z" />
    <glyph glyph-name="E" unicode="E" 
d="M260 280v-140h280v-140h-490v700h490v-140h-280v-140h210v-140h-210z" />
    <glyph glyph-name="F" unicode="F" 
d="M260 280v-280h-210v700h490v-140h-280v-140h210v-140h-210z" />
    <glyph glyph-name="G" unicode="G" 
d="M330 140v280h210v-420h-490v700h490v-140h-280v-420h70z" />
    <glyph glyph-name="H" unicode="H" 
d="M50 0v700h210v-280h70v280h210v-700h-210v280h-70v-280h-210z" />
    <glyph glyph-name="I" unicode="I" horiz-adv-x="310" 
d="M50 0v700h210v-700h-210z" />
    <glyph glyph-name="J" unicode="J" 
d="M330 140v560h210v-700h-490v280h210v-140h70z" />
    <glyph glyph-name="K" unicode="K" 
d="M50 0v700h210v-210h70v210h210v-280h-140v-70h140v-350h-210v210h-70v-210h-210z" />
    <glyph glyph-name="L" unicode="L" horiz-adv-x="520" 
d="M50 0v700h210v-560h210v-140h-420z" />
    <glyph glyph-name="M" unicode="M" horiz-adv-x="800" 
d="M260 280v-280h-210v700h210v-140h70v-140h140v140h70v140h210v-700h-210v280h-70v-140h-140v140h-70z" />
    <glyph glyph-name="N" unicode="N" horiz-adv-x="660" 
d="M260 280v-280h-210v700h210v-140h70v-140h70v280h210v-700h-210v140h-70v140h-70z" />
    <glyph glyph-name="O" unicode="O" 
d="M50 0v700h490v-700h-490zM330 140v420h-70v-420h70z" />
    <glyph glyph-name="P" unicode="P" 
d="M50 0v700h490v-420h-280v-280h-210zM330 420v140h-70v-140h70z" />
    <glyph glyph-name="Q" unicode="Q" horiz-adv-x="610" 
d="M50 0v700h490v-560h70v-140h-560zM330 140v420h-70v-420h70z" />
    <glyph glyph-name="R" unicode="R" 
d="M50 0v700h490v-280h-70v-70h70v-350h-210v280h-70v-280h-210zM330 420v140h-70v-140h70z" />
    <glyph glyph-name="S" unicode="S" 
d="M50 280v420h490v-140h-280v-140h280v-420h-490v140h280v140h-280z" />
    <glyph glyph-name="T" unicode="T" 
d="M400 560v-560h-210v560h-140v140h490v-140h-140z" />
    <glyph glyph-name="U" unicode="U" 
d="M50 0v700h210v-560h70v560h210v-700h-490z" />
    <glyph glyph-name="V" unicode="V" 
d="M50 280v420h210v-280h70v280h210v-420h-70v-140h-70v-140h-210v140h-70v140h-70z" />
    <glyph glyph-name="W" unicode="W" horiz-adv-x="800" 
d="M260 700v-350h70v140h140v-140h70v350h210v-560h-70v-140h-210v210h-140v-210h-210v140h-70v560h210z" />
    <glyph glyph-name="X" unicode="X" 
d="M50 0v350h140v70h-140v280h210v-210h70v210h210v-280h-140v-70h140v-350h-210v210h-70v-210h-210z" />
    <glyph glyph-name="Y" unicode="Y" 
d="M50 350v350h210v-210h70v210h210v-350h-140v-350h-210v350h-140z" />
    <glyph glyph-name="Z" unicode="Z" 
d="M50 0v350h140v70h140v140h-280v140h490v-350h-140v-70h-140v-140h280v-140h-490z" />
    <glyph glyph-name="underscore" unicode="_" horiz-adv-x="800" 
d="M50 -140v140h700v-140h-700z" />
    <glyph glyph-name="a" unicode="a" 
d="M50 0v700h490v-700h-210v280h-70v-280h-210zM330 420v140h-70v-140h70z" />
    <glyph glyph-name="b" unicode="b" 
d="M50 0v700h490v-280h-70v-70h70v-350h-490zM330 420v140h-70v-140h70zM260 280v-140h70v140h-70z" />
    <glyph glyph-name="c" unicode="c" horiz-adv-x="520" 
d="M470 140v-140h-420v700h420v-140h-210v-420h210z" />
    <glyph glyph-name="d" unicode="d" 
d="M50 0v700h420v-70h70v-560h-70v-70h-420zM330 140v420h-70v-420h70z" />
    <glyph glyph-name="e" unicode="e" 
d="M260 280v-140h280v-140h-490v700h490v-140h-280v-140h210v-140h-210z" />
    <glyph glyph-name="f" unicode="f" 
d="M260 280v-280h-210v700h490v-140h-280v-140h210v-140h-210z" />
    <glyph glyph-name="g" unicode="g" 
d="M330 140v280h210v-420h-490v700h490v-140h-280v-420h70z" />
    <glyph glyph-name="h" unicode="h" 
d="M50 0v700h210v-280h70v280h210v-700h-210v280h-70v-280h-210z" />
    <glyph glyph-name="i" unicode="i" horiz-adv-x="310" 
d="M50 0v700h210v-700h-210z" />
    <glyph glyph-name="j" unicode="j" 
d="M330 140v560h210v-700h-490v280h210v-140h70z" />
    <glyph glyph-name="k" unicode="k" 
d="M50 0v700h210v-210h70v210h210v-280h-140v-70h140v-350h-210v210h-70v-210h-210z" />
    <glyph glyph-name="l" unicode="l" horiz-adv-x="520" 
d="M50 0v700h210v-560h210v-140h-420z" />
    <glyph glyph-name="m" unicode="m" horiz-adv-x="800" 
d="M260 280v-280h-210v700h210v-140h70v-140h140v140h70v140h210v-700h-210v280h-70v-140h-140v140h-70z" />
    <glyph glyph-name="n" unicode="n" horiz-adv-x="660" 
d="M260 280v-280h-210v700h210v-140h70v-140h70v280h210v-700h-210v140h-70v140h-70z" />
    <glyph glyph-name="o" unicode="o" 
d="M50 0v700h490v-700h-490zM330 140v420h-70v-420h70z" />
    <glyph glyph-name="p" unicode="p" 
d="M50 0v700h490v-420h-280v-280h-210zM330 420v140h-70v-140h70z" />
    <glyph glyph-name="q" unicode="q" horiz-adv-x="610" 
d="M50 0v700h490v-560h70v-140h-560zM330 140v420h-70v-420h70z" />
    <glyph glyph-name="r" unicode="r" 
d="M50 0v700h490v-280h-70v-70h70v-350h-210v280h-70v-280h-210zM330 420v140h-70v-140h70z" />
    <glyph glyph-name="s" unicode="s" 
d="M50 280v420h490v-140h-280v-140h280v-420h-490v140h280v140h-280z" />
    <glyph glyph-name="t" unicode="t" 
d="M400 560v-560h-210v560h-140v140h490v-140h-140z" />
    <glyph glyph-name="u" unicode="u" 
d="M50 0v700h210v-560h70v560h210v-700h-490z" />
    <glyph glyph-name="v" unicode="v" 
d="M50 280v420h210v-280h70v280h210v-420h-70v-140h-70v-140h-210v140h-70v140h-70z" />
    <glyph glyph-name="w" unicode="w" horiz-adv-x="800" 
d="M260 700v-350h70v140h140v-140h70v350h210v-560h-70v-140h-210v210h-140v-210h-210v140h-70v560h210z" />
    <glyph glyph-name="x" unicode="x" 
d="M50 0v350h140v70h-140v280h210v-210h70v210h210v-280h-140v-70h140v-350h-210v210h-70v-210h-210z" />
    <glyph glyph-name="y" unicode="y" 
d="M50 350v350h210v-210h70v210h210v-350h-140v-350h-210v350h-140z" />
    <glyph glyph-name="z" unicode="z" 
d="M50 0v350h140v70h140v140h-280v140h490v-350h-140v-70h-140v-140h280v-140h-490z" />
    <glyph glyph-name="uni00A0" unicode="&#xa0;" horiz-adv-x="500" 
 />
    <glyph glyph-name="copyright" unicode="&#xa9;" horiz-adv-x="800" 
d="M260 210v280h70v70h140v-70h70v-70h-140v-140h140v-70h-70v-70h-140v70h-70zM680 140v-70h-140v70h70v420h-70v70h-350v70h420v-70h70v-70h70v-420h-70zM190 560v-420h70v-70h350v-70h-420v70h-70v70h-70v420h70v70h140v-70h-70z" />
    <glyph glyph-name="registered" unicode="&#xae;" horiz-adv-x="730" 
d="M190 350v280h105v-280h-105zM295 560v70h175v-70h-175zM295 420v70h140v-70h-140zM365 350v70h105v-70h-105zM365 490v70h105v-70h-105zM190 700v70h280v-70h-280zM190 210v70h280v-70h-280zM50 350v280h70v-280h-70zM540 350v280h70v-280h-70zM470 630v70h70v-70h-70z
M470 280v70h70v-70h-70zM120 280v70h70v-70h-70zM120 630v70h70v-70h-70z" />
    <glyph glyph-name="degree" unicode="&#xb0;" horiz-adv-x="520" 
d="M50 350v280h70v70h280v-70h70v-280h-70v-70h-280v70h-70zM190 560v-140h140v140h-140z" />
    <glyph glyph-name="paragraph" unicode="&#xb6;" horiz-adv-x="800" 
d="M750 700v-840h-210v420h-70v-420h-210v420h-140v140h-70v140h70v140h630zM540 420v140h-70v-140h70z" />
    <glyph glyph-name="florin" unicode="&#x192;" 
d="M225 490v-105h35v35h70v-35h35v105h-35v35h-70v-35h-35zM190 595v-70h70v70h-70zM330 595v-70h70v70h-70zM50 0v700h490v-700h-210v280h-70v-280h-210z" />
    <glyph glyph-name="endash" unicode="&#x2013;" horiz-adv-x="520" 
d="M50 280v140h420v-140h-420z" />
    <glyph glyph-name="emdash" unicode="&#x2014;" horiz-adv-x="800" 
d="M50 280v140h700v-140h-700z" />
    <glyph glyph-name="quoteleft" unicode="&#x2018;" horiz-adv-x="380" 
d="M260 560v-210h-210v350h140v-140h70z" />
    <glyph glyph-name="quoteright" unicode="&#x2019;" horiz-adv-x="380" 
d="M50 490v210h210v-350h-140v140h-70z" />
    <glyph glyph-name="quotedblleft" unicode="&#x201c;" horiz-adv-x="660" 
d="M540 560v-210h-210v350h140v-140h70zM260 560v-210h-210v350h140v-140h70z" />
    <glyph glyph-name="quotedblright" unicode="&#x201d;" horiz-adv-x="660" 
d="M50 490v210h210v-350h-140v140h-70zM330 490v210h210v-350h-140v140h-70z" />
    <glyph glyph-name="bullet" unicode="&#x2022;" horiz-adv-x="380" 
d="M50 210v280h280v-280h-280z" />
    <glyph glyph-name="ellipsis" unicode="&#x2026;" horiz-adv-x="870" 
d="M50 0v210h210v-210h-210zM330 0v210h210v-210h-210zM610 0v210h210v-210h-210z" />
    <glyph glyph-name="trademark" unicode="&#x2122;" horiz-adv-x="1010" 
d="M155 350v280h-105v70h350v-70h-105v-280h-140zM470 350v350h140v-350h-140zM610 490v140h70v-140h-70zM680 420v140h70v-140h-70zM750 490v140h70v-140h-70zM820 350v350h140v-350h-140z" />
    <glyph glyph-name="uni0009" horiz-adv-x="333" 
 />
    </font>
</defs>
</svg>
